<?xml version="1.0" encoding="UTF-8" standalone="no"?>
<svg
   viewBox="0 0 693.81501 518.72803"
   preserveAspectRatio="xMidYMid"
   version="1.1"
   id="svg1"
   width="693.815"
   height="518.72803"
   xmlns="http://www.w3.org/2000/svg"
   xmlns:svg="http://www.w3.org/2000/svg">
  <defs
     id="defs1" />
  <path
     fill="currentColor"
     d="M 321.37262,0 C 287.29158,7.3734365 295.08452,48.275147 303.06731,72.928374 313.29047,86.28188 298.46397,128.92899 318.1562,126.6084 343.84013,88.748325 328.67488,41.09537 321.37262,0 Z m 64.61311,123.71338 c -39.13113,-1.71024 11.3171,69.52637 -33.47165,52.18251 -10.83678,-9.57539 -34.08234,-46.21294 -38.33801,-12.19564 9.89119,43.48619 -53.29026,19.46421 -42.76419,-3.26243 -33.16483,18.40096 1.82418,71.08801 34.01528,49.81074 25.35647,-28.65583 62.01078,4.81858 84.79075,-24.50578 14.13258,-18.51671 10.44949,-45.02072 -4.23218,-62.0294 z m 139.94804,44.05933 c -39.13674,7.67412 -54.90814,51.40053 -37.51384,84.6751 10.09402,70.70387 18.79216,141.60881 25.94556,212.67108 -46.56445,17.72015 -99.95299,19.2449 -146.43757,0.43408 -2.15824,-78.00341 -3.42973,-156.05209 -7.90029,-233.9702 -40.81989,8.50574 -55.27971,54.26721 -39.58353,89.13717 5.77082,48.41622 12.93324,96.65294 20.3971,144.83303 -46.08794,16.78122 -98.64945,18.80482 -144.46249,0 -2.75731,-63.14582 -5.75976,-126.28711 -7.33599,-189.4768 -21.88977,11.23209 -54.65358,20.48941 -51.86496,49.3348 -25.2665,17.3022 -57.476929,21.02561 -82.137136,40.10421 -24.683922,18.00403 -65.882114,51.62576 -46.3154238,84.63877 28.8132578,26.07117 69.7882958,29.03788 106.1967298,36.77742 24.23942,8.92482 39.56405,-14.20777 51.17734,-26.3712 6.59019,30.13736 26.84015,51.3821 58.62252,53.80789 40.08045,8.3283 83.32957,5.86772 121.34057,-9.24425 33.63287,-6.46738 63.6697,22.8687 97.36776,13.34662 33.75639,2.17741 79.32639,-3.6484 91.16024,-41.16637 18.36107,-39.43096 4.00709,-83.58862 4.60718,-125.09339 C 534.84129,290.7272 528.61737,229.3678 525.93377,167.77271 Z m 143.61604,0 c -38.49546,-1.54122 -53.92863,41.5935 -41.60634,72.63988 8.78857,92.52468 14.04184,185.38737 15.64823,278.31543 10.43967,-1.44694 20.87935,-2.89388 31.31902,-4.34082 5.10966,-90.68929 6.12257,-181.69237 0.56431,-272.38647 36.77819,-14.12211 -4.94274,-51.62792 -5.92522,-74.22802 z m -522.26578,193.1665 c 5.83117,28.21533 11.66234,56.43065 17.49351,84.64598 -45.08427,-1.02666 -93.089913,-4.22081 -131.765609,-29.95166 31.68308,-29.19105 73.705249,-43.00916 114.272099,-54.69432 z"
     id="path1" />
</svg>
